<svg width="32" height="32" viewBox="0 0 32 32" fill="none" xmlns="http://www.w3.org/2000/svg">
<circle cx="16" cy="16" r="15.5" stroke="black"/>
<path d="M17.3333 10.6667H19.3333C19.5173 10.6667 19.6667 10.5173 19.6667 10.3333V8.33333C19.6667 8.14933 19.5173 8 19.3333 8H17.3333C15.312 8 13.6667 9.64467 13.6667 11.6667V14H11.3333C11.1493 14 11 14.1493 11 14.3333V16.3333C11 16.5173 11.1493 16.6667 11.3333 16.6667H13.6667V23.6667C13.6667 23.8507 13.816 24 14 24H16C16.184 24 16.3333 23.8507 16.3333 23.6667V16.6667H18.6667C18.81 16.6667 18.9373 16.5747 18.9833 16.4387L19.65 14.4387C19.684 14.3373 19.6667 14.2253 19.604 14.138C19.5407 14.0513 19.4407 14 19.3333 14H16.3333V11.6667C16.3333 11.1153 16.782 10.6667 17.3333 10.6667Z" fill="black"/>
</svg>
