<svg id="instagram_1_" data-name="instagram (1)" xmlns="http://www.w3.org/2000/svg" xmlns:xlink="http://www.w3.org/1999/xlink" viewBox="0 0 20.113 20.114">
  <defs>
    <style>
      .cls-1 {
        fill: url(#linear-gradient);
      }

      .cls-2 {
        fill: url(#linear-gradient-2);
      }

      .cls-3 {
        fill: url(#linear-gradient-3);
      }
    </style>
    <linearGradient id="linear-gradient" x1="0.5" y1="0.008" x2="0.5" y2="0.998" gradientUnits="objectBoundingBox">
      <stop offset="0" stop-color="#e09b3d"/>
      <stop offset="0.3" stop-color="#c74c4d"/>
      <stop offset="0.6" stop-color="#c21975"/>
      <stop offset="1" stop-color="#7024c4"/>
    </linearGradient>
    <linearGradient id="linear-gradient-2" y1="-0.451" y2="1.462" xlink:href="#linear-gradient"/>
    <linearGradient id="linear-gradient-3" y1="-1.396" y2="6.586" xlink:href="#linear-gradient"/>
  </defs>
  <path id="Path_8561" data-name="Path 8561" class="cls-1" d="M14.122,0H5.992A6,6,0,0,0,0,5.992v8.13a6,6,0,0,0,5.992,5.992h8.13a6,6,0,0,0,5.992-5.992V5.992A6,6,0,0,0,14.122,0ZM18.09,14.122a3.969,3.969,0,0,1-3.969,3.969H5.992a3.969,3.969,0,0,1-3.969-3.969V5.992A3.969,3.969,0,0,1,5.992,2.023h8.13A3.969,3.969,0,0,1,18.09,5.992v8.13Z"/>
  <path id="Path_8562" data-name="Path 8562" class="cls-2" d="M138.2,133a5.2,5.2,0,1,0,5.2,5.2A5.208,5.208,0,0,0,138.2,133Zm0,8.381a3.179,3.179,0,1,1,3.179-3.179A3.179,3.179,0,0,1,138.2,141.381Z" transform="translate(-128.145 -128.145)"/>
  <ellipse id="Ellipse_606" data-name="Ellipse 606" class="cls-3" cx="1.247" cy="1.247" rx="1.247" ry="1.247" transform="translate(14.022 3.647)"/>
</svg>
