<svg width="32" height="32" viewBox="0 0 32 32" fill="none" xmlns="http://www.w3.org/2000/svg">
<circle cx="16" cy="16" r="15.5" stroke="black"/>
<path d="M23.5795 11.2367C23.4781 11.1253 23.3148 11.0973 23.1808 11.166C23.0975 11.2087 22.9408 11.2647 22.7548 11.32C22.9895 11.008 23.1781 10.6587 23.2615 10.3447C23.2975 10.2093 23.2448 10.0667 23.1301 9.986C23.0155 9.906 22.8628 9.906 22.7481 9.986C22.5675 10.112 21.6955 10.4907 21.1441 10.6133C19.8981 9.522 18.4481 9.40867 16.9408 10.2887C15.7155 11.004 15.4488 12.4587 15.5008 13.3453C12.6961 13.0753 10.9528 11.594 9.97146 10.368C9.90279 10.282 9.79212 10.2367 9.68812 10.2433C9.57879 10.2513 9.48012 10.312 9.42412 10.406C8.96012 11.1893 8.83146 12.0553 9.05346 12.9107C9.17479 13.3773 9.38679 13.7887 9.63279 14.122C9.51479 14.064 9.40079 13.9913 9.29346 13.9047C9.19479 13.8233 9.05679 13.808 8.94012 13.862C8.82412 13.9173 8.75012 14.0347 8.75012 14.1633C8.75012 15.632 9.66879 16.612 10.5268 17.124C10.3881 17.1073 10.2435 17.0767 10.0975 17.032C9.97212 16.994 9.83612 17.032 9.74946 17.1307C9.66279 17.2287 9.64212 17.3687 9.69612 17.488C10.1781 18.554 11.0915 19.2873 12.2215 19.5533C11.2348 20.1327 9.91412 20.4167 8.70479 20.2773C8.54812 20.2553 8.39879 20.3547 8.34946 20.5053C8.30012 20.656 8.36479 20.8213 8.50279 20.8987C10.3375 21.9287 11.9961 22.2967 13.4295 22.2967C15.5155 22.2967 17.1255 21.518 18.1055 20.8667C20.7475 19.1133 22.3941 15.9653 22.1648 13.1487C22.5881 12.836 23.2215 12.2587 23.6141 11.638C23.6955 11.5127 23.6808 11.3473 23.5795 11.2367Z" fill="black"/>
</svg>
