<svg width="32" height="32" viewBox="0 0 32 32" fill="none" xmlns="http://www.w3.org/2000/svg">
<circle cx="16" cy="16" r="15.5" stroke="black"/>
<path d="M19.2087 12.5H20.9587C21.1197 12.5 21.2503 12.3693 21.2503 12.2083V10.4583C21.2503 10.2973 21.1197 10.1667 20.9587 10.1667H19.2087C19.0477 10.1667 18.917 10.2973 18.917 10.4583V12.2083C18.917 12.3693 19.0477 12.5 19.2087 12.5Z" fill="black"/>
<path d="M16 19.5C17.9302 19.5 19.5 17.9302 19.5 16C19.5 14.0697 17.9302 12.5 16 12.5C14.0697 12.5 12.5 14.0697 12.5 16C12.5 17.9302 14.0697 19.5 16 19.5ZM16 14.8333C16.6434 14.8333 17.1667 15.3566 17.1667 16C17.1667 16.6434 16.6434 17.1667 16 17.1667C15.3566 17.1667 14.8333 16.6434 14.8333 16C14.8333 15.3566 15.3566 14.8333 16 14.8333Z" fill="black"/>
<path d="M20.9583 9H11.0417C9.91583 9 9 9.91583 9 11.0417V13.9583V20.9583C9 22.0842 9.91583 23 11.0417 23H20.9583C22.0842 23 23 22.0842 23 20.9583V13.9583V11.0417C23 9.91583 22.0842 9 20.9583 9ZM10.1667 9.88258V11.625C10.1667 11.786 10.2973 11.9167 10.4583 11.9167C10.6193 11.9167 10.75 11.786 10.75 11.625V9.61308C10.8445 9.59383 10.9419 9.58333 11.0417 9.58333H11.3333V11.625C11.3333 11.786 11.464 11.9167 11.625 11.9167C11.786 11.9167 11.9167 11.786 11.9167 11.625V9.58333H12.5V11.625C12.5 11.786 12.6307 11.9167 12.7917 11.9167C12.9527 11.9167 13.0833 11.786 13.0833 11.625V9.58333H20.9583C21.7627 9.58333 22.4167 10.2378 22.4167 11.0417V13.6667H19.8663C19.7637 13.6667 19.6692 13.7203 19.6161 13.8078C19.5636 13.8953 19.5607 14.0044 19.6085 14.0948C19.9241 14.6887 20.0833 15.3297 20.0833 16C20.0833 18.2517 18.2511 20.0833 16 20.0833C13.7489 20.0833 11.9167 18.2517 11.9167 16C11.9167 15.3297 12.0759 14.6887 12.3909 14.0948C12.4388 14.0044 12.4358 13.8953 12.3833 13.8078C12.3308 13.7203 12.2363 13.6667 12.1337 13.6667H9.58333V11.0417C9.58333 10.5668 9.81433 10.1486 10.1667 9.88258Z" fill="black"/>
</svg>
