<svg xmlns="http://www.w3.org/2000/svg" viewBox="0 0 23.652 19.673">
  <defs>
    <style>
      .cls-1 {
        fill: #76a9ea;
      }
    </style>
  </defs>
  <path id="twitter" class="cls-1" d="M23.276,36.78a9.365,9.365,0,0,1-1.631.55,5.085,5.085,0,0,0,1.342-2.137h0a.267.267,0,0,0-.39-.311h0a9.41,9.41,0,0,1-2.493,1.03.635.635,0,0,1-.156.019.661.661,0,0,1-.437-.167,5.1,5.1,0,0,0-3.374-1.273,5.452,5.452,0,0,0-1.615.249A4.94,4.94,0,0,0,11.193,38.3a5.439,5.439,0,0,0-.121,1.878.183.183,0,0,1-.046.143.189.189,0,0,1-.141.064h-.018a13.37,13.37,0,0,1-9.19-4.91h0a.267.267,0,0,0-.437.034h0a5.1,5.1,0,0,0,.83,6.2,4.569,4.569,0,0,1-1.163-.45h0a.267.267,0,0,0-.4.23h0a5.105,5.105,0,0,0,2.978,4.7H3.381a4.588,4.588,0,0,1-.859-.082h0a.267.267,0,0,0-.3.343h0a5.11,5.11,0,0,0,4.037,3.476,9.409,9.409,0,0,1-5.27,1.6H.394a.39.39,0,0,0-.382.294.4.4,0,0,0,.193.446,14,14,0,0,0,7.032,1.9,14.187,14.187,0,0,0,6.01-1.275,13.271,13.271,0,0,0,4.4-3.3,14.446,14.446,0,0,0,2.692-4.509,14.245,14.245,0,0,0,.915-4.935v-.078a.868.868,0,0,1,.325-.675,10.079,10.079,0,0,0,2.027-2.225h0a.267.267,0,0,0-.33-.392Z" transform="translate(0 -34.491)"/>
</svg>
